<?xml version="1.0" encoding="iso-8859-1"?>
<!-- Generator: Adobe Illustrator 19.0.0, SVG Export Plug-In . SVG Version: 6.00 Build 0)  -->
<svg version="1.1" id="Layer_1" xmlns="http://www.w3.org/2000/svg" xmlns:xlink="http://www.w3.org/1999/xlink" x="0px" y="0px"
	 viewBox="0 0 503.326 503.326" style="enable-background:new 0 0 503.326 503.326;" xml:space="preserve">
<g>
	<path id="SVGCleanerId_0" style="fill:#E6E7E8;" d="M121.419,0c-19.17,0-34.712,15.542-34.712,34.712v364.405l243.061,0.069v58.88
		c0,22.667,16.566,42.904,39.12,45.056c25.886,2.465,47.659-17.816,47.659-43.19V295.051V86.78V43.39
		c0-23.96,19.421-43.39,43.39-43.39H121.419z"/>
	<g>
		<path id="SVGCleanerId_0_1_" style="fill:#E6E7E8;" d="M121.419,0c-19.17,0-34.712,15.542-34.712,34.712v364.405l243.061,0.069
			v58.88c0,22.667,16.566,42.904,39.12,45.056c25.886,2.465,47.659-17.816,47.659-43.19V295.051V86.78V43.39
			c0-23.96,19.421-43.39,43.39-43.39H121.419z"/>
	</g>
	<g>
		<path style="fill:#B0B6BB;" d="M459.934,0L459.934,0c-23.96,0-43.39,19.43-43.39,43.39v60.824h69.346
			c9.633,0,17.434-7.81,17.434-17.434V43.39C503.324,19.43,483.894,0,459.934,0"/>
		<path style="fill:#B0B6BB;" d="M373.154,503.322L373.154,503.322c-23.96,0-43.39-19.43-43.39-43.39v-60.746l-312.329-0.078
			c-9.633,0-17.434,7.81-17.434,17.434v43.39c0,23.96,19.43,43.39,43.39,43.39H373.154z"/>
		<path style="fill:#B0B6BB;" d="M303.731,60.746H199.595c-4.79,0-8.678-3.879-8.678-8.678s3.888-8.678,8.678-8.678h104.136
			c4.79,0,8.678,3.879,8.678,8.678S308.521,60.746,303.731,60.746"/>
		<path style="fill:#B0B6BB;" d="M364.476,112.814H138.849c-4.79,0-8.678-3.879-8.678-8.678c0-4.799,3.888-8.678,8.678-8.678
			h225.627c4.79,0,8.678,3.879,8.678,8.678C373.154,108.935,369.267,112.814,364.476,112.814"/>
		<path style="fill:#B0B6BB;" d="M364.476,164.881H138.849c-4.79,0-8.678-3.879-8.678-8.678c0-4.799,3.888-8.678,8.678-8.678
			h225.627c4.79,0,8.678,3.879,8.678,8.678C373.154,161.002,369.267,164.881,364.476,164.881"/>
		<path style="fill:#B0B6BB;" d="M242.714,216.949H138.848c-4.79,0-8.678-3.879-8.678-8.678c0-4.799,3.888-8.678,8.678-8.678
			h103.867c4.79,0,8.678,3.879,8.678,8.678C251.392,213.07,247.504,216.949,242.714,216.949"/>
		<path style="fill:#B0B6BB;" d="M210.015,269.017h-71.168c-4.79,0-8.678-3.879-8.678-8.678s3.888-8.678,8.678-8.678h71.168
			c4.79,0,8.678,3.879,8.678,8.678S214.805,269.017,210.015,269.017"/>
		<path style="fill:#B0B6BB;" d="M215.497,321.085h-76.652c-4.79,0-8.678-3.879-8.678-8.678c0-4.799,3.888-8.678,8.678-8.678h76.652
			c4.79,0,8.678,3.879,8.678,8.678C224.175,317.206,220.288,321.085,215.497,321.085"/>
	</g>
	<path style="fill:#6ABDA0;" d="M381.832,277.695c0-47.928-38.851-86.78-86.78-86.78s-86.78,38.851-86.78,86.78
		s38.851,86.78,86.78,86.78S381.832,325.623,381.832,277.695"/>
	<path style="fill:#FFFFFF;" d="M286.375,329.763c-2.291,0-4.504-0.903-6.135-2.543l-34.712-34.712
		c-3.393-3.393-3.393-8.878,0-12.271s8.878-3.393,12.271,0l27.231,27.231l46.193-69.302c2.664-3.983,8.044-5.068,12.036-2.404
		c3.983,2.664,5.059,8.044,2.404,12.036l-52.068,78.102c-1.441,2.161-3.784,3.567-6.361,3.818
		C286.939,329.745,286.661,329.763,286.375,329.763"/>
</g>
<g>
</g>
<g>
</g>
<g>
</g>
<g>
</g>
<g>
</g>
<g>
</g>
<g>
</g>
<g>
</g>
<g>
</g>
<g>
</g>
<g>
</g>
<g>
</g>
<g>
</g>
<g>
</g>
<g>
</g>
</svg>
